<svg xmlns="http://www.w3.org/2000/svg" xmlns:xlink="http://www.w3.org/1999/xlink" width="390.087" height="276.6" viewBox="0 0 390.087 276.6">
  <defs>
    <filter id="_" x="263.129" y="107.284" width="126.958" height="162.588" filterUnits="userSpaceOnUse">
      <feOffset dy="3" input="SourceAlpha"/>
      <feGaussianBlur stdDeviation="3" result="blur"/>
      <feFlood flood-opacity="0.161"/>
      <feComposite operator="in" in2="blur"/>
      <feComposite in="SourceGraphic"/>
    </filter>
  </defs>
  <g id="Group_86" data-name="Group 86" transform="translate(-47.928 6.528)">
    <g id="Group_40" data-name="Group 40" transform="translate(320.056 107.202)">
      <g transform="matrix(1, 0, 0, 1, -272.13, -113.73)" filter="url(#_)">
        <text id="_2" data-name=" " transform="matrix(0.85, -0.53, 0.53, 0.85, 334.66, 232.43)" fill="#fabd22" font-size="114" font-family="Futura-Medium, Futura" font-weight="500"><tspan x="0" y="0"> </tspan></text>
      </g>
    </g>
    <path id="Path_29" data-name="Path 29" d="M18.225,0s6.383,59.182,1.461,70.557S0,62.343,0,45.343,10.214,13.736,15.136,3.04" transform="matrix(-0.616, -0.788, 0.788, -0.616, 90.666, 204.997)" fill="#707070" stroke="#000" stroke-width="10"/>
    <rect id="Rectangle_16" data-name="Rectangle 16" width="167.981" height="101.57" transform="translate(313.338 145.859) rotate(179)" fill="#fff"/>
    <path id="Path_4" data-name="Path 4" d="M0,64.3a164.337,164.337,0,0,1,5.345-20.81S15.271,20.136,38.724,9.285,99.16.091,99.16.091s35.155-1.656,60.156,9.194,34.538,26.828,39.844,34.208,7.558,17.959,7.558,17.959" transform="translate(326.781 63.523) rotate(-180)" fill="#fff" stroke="#000" stroke-linecap="round" stroke-linejoin="bevel" stroke-width="10"/>
    <path id="Path_5" data-name="Path 5" d="M0,0" transform="translate(313.752 49.74) rotate(-180)" fill="#fff" stroke="#000" stroke-width="10"/>
    <path id="Path_6" data-name="Path 6" d="M49.895,217.87V120.231s-.616-15.178-5.154-25.162c-4.569-7-19.324-25.035-19.324-25.035S.532,55.037.08,43.816C-.3,34.546-.049,20.874,17.857,7.052,31.922,2.108,69.6-10.3,81.994,17.6c13.082,29.438,0,100.046,0,100.046s19.115-5.166,36.4-6.888,15.12-1.722,32.739,0,37.742,6.888,37.742,6.888" transform="translate(358.542 265.079) rotate(-180)" fill="#fff" stroke="#000" stroke-linecap="round" stroke-linejoin="bevel" stroke-width="10"/>
    <path id="Path_8" data-name="Path 8" d="M32.1,171.634V87.543s-4.338-4.272,16.016,9.742S90.583,73.946,90.583,73.946s43.287-33.637,22.934-60.579-76.186-7.4-91.6,8.438S0,73.946,0,73.946" transform="translate(172.063 221.374) rotate(-180)" fill="#fff" stroke="#000" stroke-linecap="round" stroke-linejoin="bevel" stroke-width="10"/>
    <g id="Path_14" data-name="Path 14" transform="translate(259.378 105.852) rotate(-180)" fill="#707070" stroke-linejoin="bevel">
      <path d="M 8.451837539672852 26.66092681884766 C 8.147475242614746 26.48086929321289 7.351789474487305 25.78204154968262 6.561007499694824 24.03572845458984 C 5.554377555847168 21.81272888183594 4.999997615814209 18.90465927124023 4.999997615814209 15.84718894958496 C 4.999997615814209 12.78971862792969 5.554377555847168 9.881649017333984 6.561007499694824 7.65864896774292 C 7.351789474487305 5.912336826324463 8.147475242614746 5.213508129119873 8.451837539672852 5.033451557159424 C 8.756199836730957 5.213508129119873 9.551885604858398 5.912336826324463 10.34266757965088 7.65864896774292 C 11.34929752349854 9.881649017333984 11.90367794036865 12.78971862792969 11.90367794036865 15.84718894958496 C 11.90367794036865 18.90465927124023 11.34929752349854 21.81272888183594 10.34266757965088 24.03572845458984 C 9.551885604858398 25.78204154968262 8.756199836730957 26.48086929321289 8.451837539672852 26.66092681884766 Z" stroke="none"/>
      <path d="M 8.451837539672852 3.814697265625e-06 C 13.11965179443359 3.814697265625e-06 16.9036808013916 7.09503173828125 16.9036808013916 15.84718894958496 C 16.9036808013916 24.59934616088867 13.11965179443359 31.69437408447266 8.451837539672852 31.69437408447266 C 3.784008979797363 31.69437408447266 -5.7220458984375e-06 24.59934616088867 -5.7220458984375e-06 15.84718894958496 C -5.7220458984375e-06 7.09503173828125 3.784008979797363 3.814697265625e-06 8.451837539672852 3.814697265625e-06 Z" stroke="none" fill="#000"/>
    </g>
    <g id="Path_15" data-name="Path 15" transform="translate(208.668 105.852) rotate(-180)" fill="#707070" stroke-linejoin="bevel">
      <path d="M 9.508316040039062 26.69437980651855 C 8.957046508789062 26.69437980651855 7.990036010742188 26.00978851318359 7.072386264801025 24.48036956787109 C 5.755355834960938 22.28531837463379 4.999996185302734 19.13863945007324 4.999996185302734 15.84718894958496 C 4.999996185302734 12.555739402771 5.755355834960938 9.409058570861816 7.072386264801025 7.214008808135986 C 7.990036010742188 5.68458890914917 8.957046508789062 4.999999046325684 9.508316040039062 4.999999046325684 C 10.05958557128906 4.999999046325684 11.02659606933594 5.68458890914917 11.94424629211426 7.214008808135986 C 13.26127624511719 9.409058570861816 14.01663589477539 12.555739402771 14.01663589477539 15.84718894958496 C 14.01663589477539 19.13863945007324 13.26127624511719 22.28531837463379 11.94424629211426 24.48036956787109 C 11.02659606933594 26.00978851318359 10.05958557128906 26.69437980651855 9.508316040039062 26.69437980651855 Z" stroke="none"/>
      <path d="M 9.508316040039062 3.814697265625e-06 C 14.75961589813232 3.814697265625e-06 19.01663017272949 7.09503173828125 19.01663017272949 15.84718894958496 C 19.01663017272949 24.59934616088867 14.75961589813232 31.69437408447266 9.508316040039062 31.69437408447266 C 4.257016181945801 31.69437408447266 1.9073486328125e-06 24.59934616088867 1.9073486328125e-06 15.84718894958496 C 1.9073486328125e-06 7.09503173828125 4.257016181945801 3.814697265625e-06 9.508316040039062 3.814697265625e-06 Z" stroke="none" fill="#000"/>
    </g>
    <path id="Path_9" data-name="Path 9" d="M29.863,0C4.78,3.829,1.388,10.238,1.388,10.238S-2.918,16.48,3.638,22.8,29.863,33.751,29.863,33.751" transform="translate(253.285 48.133) rotate(-180)" stroke="#000" stroke-linecap="round" stroke-linejoin="bevel" stroke-width="10"/>
    <path id="Path_10" data-name="Path 10" d="M0,0C23.4,3.529,26.567,9.537,26.567,9.537s4.016,5.754-2.1,11.581S0,33.978,0,33.978" transform="translate(223.421 48.361) rotate(-180)" stroke="#000" stroke-linecap="round" stroke-linejoin="bevel" stroke-width="10"/>
    <path id="Path_11" data-name="Path 11" d="M0,0A65.957,65.957,0,0,1,21.652,9.812" transform="translate(183.752 130.134) rotate(-180)" fill="#fff" stroke="#000" stroke-linecap="round" stroke-width="10"/>
    <path id="Path_12" data-name="Path 12" d="M21.652,0A65.939,65.939,0,0,0,0,9.812" transform="translate(283.396 130.134) rotate(-180)" fill="#fff" stroke="#000" stroke-linecap="round" stroke-width="10"/>
    <g id="Ellipse_6" data-name="Ellipse 6" transform="matrix(-0.017, 1, -1, -0.017, 241.327, 26.547)" fill="#fff" stroke="#000" stroke-width="10">
      <ellipse cx="11.72" cy="17.579" rx="11.72" ry="17.579" stroke="none"/>
      <ellipse cx="11.72" cy="17.579" rx="6.72" ry="12.579" fill="none"/>
    </g>
    <path id="Path_30" data-name="Path 30" d="M0,42.6S20.185,42,36.647,39.584s21.916-3.467,29.2-6.625,9.135-14.29,5.94-22.308S63.5-2.064,53.066.889,45.092,12.366,31.825,22.8,0,42.6,0,42.6Z" transform="translate(334.013 169.701) rotate(90)" fill="#707070" stroke="#000" stroke-width="10"/>
    <path id="Path_38" data-name="Path 38" d="M0,42.6S20.185,42,36.647,39.584s21.916-3.467,29.2-6.625,9.135-14.29,5.94-22.308S63.5-2.064,53.066.889,45.092,12.366,31.825,22.8,0,42.6,0,42.6Z" transform="translate(334.013 169.701) rotate(90)" stroke="#000" stroke-width="10"/>
    <path id="Path_39" data-name="Path 39" d="M0,0A117.956,117.956,0,0,1,19.574,2.829c8.793,2.259,11.706,3.248,15.6,6.207s4.879,13.389,3.173,20.9-4.425,11.913-10,9.147S24.085,28.33,17,18.559A134.364,134.364,0,0,0,0,0Z" transform="translate(132.541 150.127) rotate(90)" stroke="#000" stroke-width="10"/>
  </g>
</svg>

